<?xml version="1.0" encoding="UTF-8" standalone="no"?><!DOCTYPE svg PUBLIC "-//W3C//DTD SVG 1.1//EN" "http://www.w3.org/Graphics/SVG/1.1/DTD/svg11.dtd"><svg width="100%" height="100%" viewBox="0 0 270 170" version="1.1" xmlns="http://www.w3.org/2000/svg" xmlns:xlink="http://www.w3.org/1999/xlink" xml:space="preserve" xmlns:serif="http://www.serif.com/" style="fill-rule:evenodd;clip-rule:evenodd;stroke-linecap:round;stroke-linejoin:round;stroke-miterlimit:1.5;"><rect id="Logo" x="0" y="0" width="270" height="170" style="fill:none;"/><g id="Logo-Final" serif:id="Logo Final"><path id="_-" serif:id="&lt;" d="M83.619,5.513l-79.519,79.498l79.519,79.497" style="fill:none;stroke:#000;stroke-width:1.62px;"/><path d="M265.9,5.513c0,0 -9.443,-0.008 -16.296,-0.015c-1.848,-0.002 -3.62,0.731 -4.926,2.037c-1.306,1.305 -2.04,3.077 -2.04,4.924c0.005,15.221 0.017,50.749 0.019,59.127c0.001,1.148 -0.455,2.249 -1.267,3.061c-3.015,3.015 -10.364,10.364 -10.364,10.364c0,0 7.338,7.352 10.346,10.366c0.81,0.811 1.264,1.909 1.265,3.055c0.002,8.363 0.014,43.843 0.019,59.079c0.001,3.865 3.135,6.997 7,6.997c6.844,0 16.244,0 16.244,0" style="fill:none;stroke:#000;stroke-width:1.62px;"/><path d="M241.836,96.323c-5.498,38.526 -38.662,68.185 -78.697,68.185c-43.876,0 -79.498,-35.621 -79.498,-79.497c0,-43.876 35.622,-79.498 79.498,-79.498c40.045,0 73.215,29.674 78.701,68.215c-0.336,0.644 -0.77,1.239 -1.293,1.762c-3.354,3.354 -9.521,9.521 -9.521,9.521c0,0 6.159,6.171 9.505,9.523c0.53,0.53 0.968,1.135 1.305,1.789Z" style="fill:none;stroke:#000;stroke-width:1.62px;"/></g></svg>